<?xml version="1.0" encoding="utf-8"?>
<svg version="1.1" id="Layer_1" xmlns="http://www.w3.org/2000/svg" xmlns:xlink="http://www.w3.org/1999/xlink" x="0px" y="0px"
	 viewBox="0 0 222 68" enable-background="new 0 0 222 68" xml:space="preserve">
<g>
	<path fill="#14477C" d="M57,54.4986C57,55.3282,56.3207,56,55.4835,56H13.5158C12.6786,56,12,55.3282,12,54.4986V29.5022
		C12,28.6725,12.6786,28,13.5158,28h41.9677C56.3207,28,57,28.6725,57,29.5022V54.4986z"/>
	<g>
		<ellipse fill-rule="evenodd" clip-rule="evenodd" fill="#FBB230" cx="40.8302" cy="41.9918" rx="8.2531" ry="8.2796"/>
		<ellipse fill-rule="evenodd" clip-rule="evenodd" fill="#EB2230" cx="29.8365" cy="42.0082" rx="8.2531" ry="8.2796"/>
		<polygon fill-rule="evenodd" clip-rule="evenodd" fill="#FBB230" points="34.3744,36.9416 38.7288,36.9416 38.7288,36.4949 
			34.7499,36.4949 34.3744,36.9416 34.3744,36.9416 		"/>
		<polygon fill-rule="evenodd" clip-rule="evenodd" fill="#FBB230" points="33.7221,37.9342 38.7288,37.9342 38.7288,37.4875 
			33.9846,37.4875 33.7221,37.9342 33.7221,37.9342 		"/>
		<polygon fill-rule="evenodd" clip-rule="evenodd" fill="#FBB230" points="33.2349,38.9244 38.7288,38.9244 38.7288,38.4777 
			33.4291,38.4777 33.2349,38.9244 33.2349,38.9244 		"/>
		<polygon fill-rule="evenodd" clip-rule="evenodd" fill="#FBB230" points="32.9006,39.9171 38.7288,39.9171 38.7288,39.4708 
			33.0393,39.4708 32.9006,39.9171 32.9006,39.9171 		"/>
		<polygon fill-rule="evenodd" clip-rule="evenodd" fill="#FBB230" points="33.0948,44.7149 38.7423,44.7149 38.7423,44.2684 
			32.9561,44.2684 33.0948,44.7149 33.0948,44.7149 		"/>
		<polygon fill-rule="evenodd" clip-rule="evenodd" fill="#FBB230" points="33.5116,45.7076 38.7423,45.7076 38.7423,45.2611 
			33.3046,45.2611 33.5116,45.7076 33.5116,45.7076 		"/>
		<polygon fill-rule="evenodd" clip-rule="evenodd" fill="#FBB230" points="34.0977,46.6977 38.7423,46.6977 38.7423,46.2512 
			33.8181,46.2512 34.0977,46.6977 34.0977,46.6977 		"/>
		<polygon fill-rule="evenodd" clip-rule="evenodd" fill="#FBB230" points="34.905,47.6904 38.7423,47.6904 38.7423,47.2411 
			34.5152,47.2411 34.905,47.6904 34.905,47.6904 		"/>
		<polygon fill-rule="evenodd" clip-rule="evenodd" fill="#FBB230" points="32.705,40.9072 38.7288,40.9072 38.7288,40.4607 
			32.7904,40.4607 32.705,40.9072 32.705,40.9072 		"/>
		<polygon fill-rule="evenodd" clip-rule="evenodd" fill="#FBB230" points="36.3759,43.725 38.6726,43.725 38.6726,43.2781 
			36.4584,43.2781 36.3759,43.725 36.3759,43.725 		"/>
		<polygon fill-rule="evenodd" clip-rule="evenodd" fill="#FBB230" points="36.558,42.7346 38.6726,42.7346 38.6726,42.2854 
			36.6412,42.2854 36.558,42.7346 36.558,42.7346 		"/>
		<polygon fill-rule="evenodd" clip-rule="evenodd" fill="#FBB230" points="32.5528,42.2854 33.1496,42.2854 33.1496,42.7346 
			32.5805,42.7346 32.5528,42.2854 32.5528,42.2854 		"/>
		<g>
			<path fill="#FFFFFF" d="M31.7523,40.9644l-0.1276,0.6462l-0.6933-0.016c0,0-0.3463,0.0822-0.3463,0.2151
				c0,0.1325,0.2551,0.2987,0.6381,0.4475c0.3832,0.1498,0.4015,0.5635,0.3646,0.8457c-0.0362,0.2818-0.0909,0.8666-1.2033,0.8955
				c-0.6383,0.0165-0.9849-0.0995-0.9849-0.0995l0.1459-0.6631c0,0,0.8207,0.1991,1.0032,0.0827
				c0.1823-0.116,0.401-0.3151,0.0545-0.4475c-0.3463-0.1324-0.9118-0.3489-0.9118-0.8786c0-0.5304,0.2371-0.8291,0.6019-0.9786
				C30.6577,40.8648,31.296,40.881,31.7523,40.9644L31.7523,40.9644z"/>
			<polygon fill="#FFFFFF" points="26.2737,43.922 25.4678,43.922 25.9365,41.4028 24.9401,43.9068 24.3842,43.9068 
				24.2498,41.3024 23.7625,43.922 23,43.922 23.7185,40.0771 24.6432,40.0771 24.967,42.291 26.0425,40.0771 26.9922,40.0771 
				26.2737,43.922 			"/>
			<path fill="#FFFFFF" d="M32.472,43.9757c-0.2622,0-0.4497-0.0537-0.5619-0.1542c-0.1132-0.1075-0.1691-0.2697-0.1691-0.4773
				c0-0.0542,0.0064-0.1075,0.0127-0.1546c0.0064-0.0533,0.0186-0.1147,0.0249-0.1844l0.4846-2.4605h0.7558l-0.11,0.4804h0.706
				l-0.1186,0.6082h-0.7057l-0.1938,1.0488c-0.0125,0.0684-0.0249,0.1378-0.0376,0.2147c-0.0122,0.0698-0.0186,0.1396-0.0186,0.1853
				c0,0.1076,0.0186,0.1773,0.0684,0.216c0.044,0.0382,0.119,0.0618,0.2187,0.0618c0.0376,0,0.0875-0.0085,0.1498-0.0236
				c0.0628-0.0227,0.1193-0.0382,0.1564-0.0618h0.0626l-0.1188,0.6169c-0.0875,0.0307-0.1747,0.0462-0.2683,0.0609
				C32.7156,43.9677,32.6035,43.9757,32.472,43.9757L32.472,43.9757z"/>
			<path fill="#FFFFFF" d="M37.8953,41.835c-0.1652-0.116-0.5327-0.0924-0.609,0.1453l-0.3627,1.9417h-0.7551l0.5435-2.897h0.7551
				l-0.0157,0.2338c0.1442-0.1311,0.3035-0.242,0.7082-0.2306C38.1856,41.029,37.9149,41.4588,37.8953,41.835L37.8953,41.835z"/>
			<path fill="#FFFFFF" d="M39.323,43.9993c-0.4189,0-0.7503-0.1307-0.9741-0.3858c-0.2317-0.2538-0.3441-0.6235-0.3441-1.1017
				c0-0.3778,0.0504-0.7168,0.1501-1.0248c0.0997-0.3085,0.2439-0.5698,0.4179-0.7935c0.1755-0.2153,0.3822-0.3851,0.6261-0.5082
				C39.4344,40.0615,39.6915,40,39.9598,40c0.2121,0,0.413,0.0309,0.6002,0.0851c0.0904,0.0282,0.2649,0.1033,0.2649,0.1033
				l-0.1755,0.9135c-0.0875-0.1011-0.175-0.1811-0.2644-0.2386c-0.1315-0.0769-0.2879-0.1238-0.4629-0.1238
				c-0.3123,0-0.5684,0.1546-0.7683,0.4626c-0.2058,0.3084-0.3065,0.7017-0.3065,1.179c0,0.308,0.0567,0.532,0.1691,0.6702
				c0.1124,0.1307,0.2747,0.2004,0.4878,0.2004c0.193,0,0.3739-0.0471,0.5435-0.1387c0.0797-0.048,0.1579-0.0982,0.2346-0.1555
				l-0.176,0.8719c0,0-0.0909,0.0405-0.1344,0.0542c-0.1056,0.0382-0.1989,0.0613-0.2805,0.084
				C39.604,43.9828,39.4794,43.9993,39.323,43.9993L39.323,43.9993z"/>
			<path fill="#FFFFFF" d="M28.134,43.8215c-0.031,0.0236-0.0626,0.0387-0.0875,0.0542c-0.0811,0.0386-0.1498,0.0693-0.2185,0.092
				c-0.0687,0.0151-0.1625,0.0316-0.2874,0.0316c-0.1938,0-0.3561-0.0698-0.4746-0.2005c-0.1251-0.1395-0.1877-0.3164-0.1877-0.5315
				c0-0.2311,0.0435-0.424,0.1315-0.5853c0.0875-0.1551,0.218-0.2862,0.3934-0.3782c0.1623-0.092,0.3561-0.1538,0.5748-0.1925
				l0.1559-0.0235c0.1811-0.0307,0.3688-0.0533,0.575-0.0618c0-0.0151,0-0.0306,0.0061-0.0537
				c0.0064-0.0227,0.0064-0.0462,0.0064-0.0769c0-0.1231-0.044-0.208-0.1376-0.2622c-0.0938-0.0458-0.2314-0.0689-0.4123-0.0689
				H28.134c-0.1124,0.0076-0.2373,0.0307-0.3746,0.0769c-0.1498,0.0542-0.2627,0.0925-0.3377,0.1311h-0.0685l0.1125-0.6857
				c0.0875-0.0307,0.2248-0.0616,0.4062-0.0922c0.0872-0.0235,0.1747-0.0309,0.2622-0.0389
				c0.0941-0.0156,0.1935-0.0156,0.2876-0.0156c0.3688,0,0.6371,0.0616,0.8118,0.1771c0.175,0.116,0.2564,0.3011,0.2564,0.5548
				c0,0.0311,0,0.0769-0.0064,0.1316c-0.0064,0.0542-0.0127,0.1004-0.0191,0.1462l-0.368,1.9723h-0.7503l0.0567-0.3085
				c-0.044,0.0387-0.1063,0.0849-0.1689,0.1391C28.1965,43.7753,28.1652,43.7988,28.134,43.8215L28.134,43.8215z M28.134,42.6203
				c-0.0814,0.0156-0.1498,0.0382-0.2063,0.0618c-0.0872,0.0378-0.15,0.0916-0.1933,0.1613
				c-0.0501,0.0698-0.0689,0.1618-0.0689,0.2773c0,0.1004,0.0313,0.1693,0.0872,0.208c0.0626,0.0382,0.1439,0.0618,0.2625,0.0618
				c0.0374,0,0.075-0.0076,0.1188-0.0236c0.0376-0.0071,0.0753-0.0227,0.119-0.0382c0.0811-0.0462,0.162-0.1004,0.237-0.1617
				l0.1124-0.6164c-0.131,0.0156-0.2625,0.0311-0.3744,0.0542C28.1965,42.6047,28.1652,42.6123,28.134,42.6203L28.134,42.6203z"/>
			<path fill="#FFFFFF" d="M34.6675,41.5257c-0.0997,0.0156-0.1933,0.0618-0.2683,0.1382c-0.1063,0.1084-0.1877,0.2471-0.2436,0.432
				h0.512h0.5063c0-0.0307,0.0064-0.0542,0.0064-0.0849c0-0.0227,0.0061-0.0537,0.0061-0.0764c0-0.1396-0.0376-0.2391-0.1066-0.3169
				c-0.0684-0.0684-0.1618-0.1071-0.2935-0.1071C34.7489,41.5106,34.7054,41.5177,34.6675,41.5257L34.6675,41.5257z
				 M34.6675,43.3442h0.1127c0.1625,0,0.3187-0.0307,0.4687-0.1004c0.1434-0.0698,0.2749-0.1462,0.3805-0.2311h0.0875
				l-0.1434,0.7471c-0.1435,0.0782-0.2999,0.1391-0.4619,0.1778c-0.1376,0.0382-0.2876,0.0538-0.444,0.0618h-0.0684
				c-0.406,0-0.7124-0.108-0.9311-0.3315c-0.2182-0.216-0.325-0.5164-0.325-0.9013c0-0.2622,0.0379-0.5084,0.1068-0.7249
				c0.0684-0.2231,0.1747-0.4159,0.3057-0.5855c0.1312-0.1616,0.2876-0.2847,0.481-0.3849
				c0.1376-0.0616,0.2815-0.1078,0.4311-0.1313c0.0687-0.0071,0.1373-0.0071,0.2063-0.0071c0.3502,0,0.6124,0.084,0.7935,0.2613
				c0.1747,0.1698,0.2627,0.4316,0.2627,0.771c0,0.1156-0.0064,0.2311-0.0249,0.3471c-0.0191,0.1071-0.044,0.2231-0.075,0.3307
				h-1.1625h-0.587v0.0307v0.0307c0,0.2004,0.0626,0.3546,0.175,0.4697C34.3493,43.2674,34.4864,43.3287,34.6675,43.3442
				L34.6675,43.3442z"/>
			<path fill="#FFFFFF" d="M41.7472,43.8215c-0.0308,0.0236-0.0626,0.0387-0.0933,0.0542c-0.0748,0.0386-0.1495,0.0693-0.218,0.092
				c-0.0689,0.0151-0.1632,0.0316-0.2815,0.0316c-0.2004,0-0.3563-0.0698-0.4809-0.2005c-0.1251-0.1395-0.1818-0.3164-0.1818-0.5315
				c0-0.2311,0.0435-0.424,0.132-0.5853c0.087-0.1551,0.218-0.2862,0.3876-0.3782c0.1618-0.092,0.3558-0.1538,0.5802-0.1925
				c0.0504-0.0084,0.1002-0.0155,0.1559-0.0235c0.1755-0.0307,0.3695-0.0533,0.5694-0.0618
				c0.0059-0.0151,0.0059-0.0306,0.0117-0.0537c0-0.0227,0.0069-0.0462,0.0069-0.0769c0-0.1231-0.0494-0.208-0.1383-0.2622
				c-0.0933-0.0458-0.2307-0.0689-0.4115-0.0689h-0.0381c-0.1183,0.0076-0.2429,0.0307-0.3739,0.0769
				c-0.1505,0.0542-0.263,0.0925-0.3377,0.1311h-0.0684l0.1066-0.6857c0.0875-0.0307,0.2239-0.0616,0.412-0.0922
				c0.0875-0.0235,0.174-0.0309,0.2615-0.0389c0.0948-0.0156,0.1872-0.0156,0.2879-0.0156c0.369,0,0.6369,0.0616,0.8128,0.1771
				c0.1682,0.116,0.2557,0.3011,0.2557,0.5548c0,0.0311,0,0.0769-0.0059,0.1316c-0.0069,0.0542-0.0127,0.1004-0.0201,0.1462
				l-0.368,1.9723h-0.7503l0.0577-0.3085c-0.0508,0.0387-0.1066,0.0849-0.175,0.1391L41.7472,43.8215L41.7472,43.8215z
				 M41.7472,42.6203c-0.0806,0.0156-0.149,0.0382-0.2116,0.0618c-0.0807,0.0378-0.1506,0.0916-0.1931,0.1613
				c-0.0449,0.0698-0.0699,0.1618-0.0699,0.2773c0,0.1004,0.0317,0.1693,0.0943,0.208c0.0558,0.0382,0.1437,0.0618,0.2562,0.0618
				c0.0366,0,0.0816-0.0076,0.1241-0.0236c0.0381-0.0071,0.0758-0.0227,0.1124-0.0382c0.0875-0.0462,0.1623-0.1004,0.238-0.1617
				l0.1183-0.6164c-0.1373,0.0156-0.2625,0.0311-0.3812,0.0542C41.8039,42.6047,41.7732,42.6123,41.7472,42.6203L41.7472,42.6203z"
				/>
			<path fill="#FFFFFF" d="M44.9359,41.835c-0.1652-0.116-0.5328-0.0924-0.609,0.1453l-0.3622,1.9417h-0.7556l0.5435-2.897h0.7551
				l-0.0156,0.2338c0.1432-0.1311,0.3035-0.242,0.7092-0.2306C45.2263,41.029,44.9555,41.4588,44.9359,41.835L44.9359,41.835z"/>
			<path fill-rule="evenodd" clip-rule="evenodd" fill="#FFFFFF" d="M46.4203,41.6412c-0.0376,0.0156-0.0743,0.0391-0.1061,0.0618
				c-0.1007,0.0613-0.1813,0.1546-0.2497,0.2622c-0.0567,0.1071-0.1066,0.2311-0.1373,0.3929
				c-0.0381,0.1538-0.0567,0.3085-0.0567,0.4547c0,0.1773,0.0376,0.3004,0.0992,0.3769c0.0699,0.0849,0.1691,0.124,0.3006,0.124
				c0.0508,0,0.1007-0.0084,0.15-0.0311c0.0249-0.008,0.044-0.0151,0.0689-0.0307c0.0748-0.0387,0.1432-0.0778,0.2121-0.1311
				l0.2684-1.4252c-0.0435-0.0236-0.0933-0.0471-0.1618-0.0622c-0.063-0.0227-0.1188-0.0303-0.1696-0.0303
				C46.5576,41.603,46.4892,41.6177,46.4203,41.6412L46.4203,41.6412z M46.4203,43.7682c-0.0567,0.0462-0.1193,0.092-0.1877,0.1307
				c-0.0621,0.0307-0.1246,0.0613-0.1803,0.0769c-0.0636,0.0156-0.1383,0.0236-0.219,0.0236c-0.2317,0-0.413-0.0929-0.5503-0.2702
				c-0.131-0.1844-0.1999-0.4466-0.1999-0.7781c0-0.2773,0.0308-0.5395,0.1066-0.7782c0.0685-0.2382,0.1682-0.4546,0.2938-0.6386
				c0.1251-0.1855,0.2683-0.3247,0.4364-0.4322c0.1633-0.1004,0.3255-0.1538,0.5005-0.162h0.0249
				c0.1305,0,0.2439,0.0156,0.3377,0.0462c0.0934,0.0307,0.194,0.0851,0.2933,0.1544l0.1681-1.0101H48l-0.6926,3.7916h-0.7556
				l0.0557-0.3004C46.5391,43.6749,46.476,43.722,46.4203,43.7682L46.4203,43.7682z"/>
		</g>
	</g>
</g>
<g>
	<g>
		<path fill="#F9F9FA" d="M64.5107,55.5c-0.5571,0-1.0107-0.4473-1.0107-0.9961V29.4966c0-0.5493,0.4536-0.9966,1.0107-0.9966
			h41.9785c0.5571,0,1.0107,0.4473,1.0107,0.9966v25.0073c0,0.5488-0.4536,0.9961-1.0107,0.9961H64.5107z"/>
		<path fill="#D1D3D4" d="M106.4895,29C106.771,29,107,29.2227,107,29.4966v25.0077C107,54.7776,106.771,55,106.4895,55H64.5108
			C64.2292,55,64,54.7776,64,54.5043V29.4966C64,29.2227,64.2292,29,64.5108,29H106.4895 M106.4895,28H64.5108
			C63.6765,28,63,28.6698,63,29.4966v25.0077C63,55.3304,63.6765,56,64.5108,56h41.9787C107.3239,56,108,55.3304,108,54.5043
			V29.4966C108,28.6698,107.3239,28,106.4895,28L106.4895,28z"/>
	</g>
	<g>
		<g>
			<polygon fill="#0A67B2" points="83.638,45.8503 81.3536,45.8503 82.7814,37.1553 85.0665,37.1553 			"/>
			<path fill="#0A67B2" d="M79.4313,37.1553l-2.1781,5.9803l-0.258-1.2877v0.0004l-0.7687-3.9101c0,0-0.0925-0.7829-1.0837-0.7829
				h-3.6008L71.5,37.3027c0,0,1.1012,0.2266,2.3902,0.9938l1.9847,7.5537h2.3804l3.635-8.6949H79.4313z"/>
			<path fill="#0A67B2" d="M97.4022,45.8503H99.5l-1.829-8.6949h-1.8365c-0.8483,0-1.0551,0.6478-1.0551,0.6478l-3.4072,8.0471
				h2.3813l0.4765-1.2913h2.9044L97.4022,45.8503z M94.8882,42.7749l1.2002-3.2545l0.6757,3.2545H94.8882z"/>
			<path fill="#0A67B2" d="M91.5507,39.2461l0.3259-1.8673c0,0-1.0063-0.3788-2.0546-0.3788c-1.1341,0-3.8265,0.491-3.8265,2.8784
				c0,2.2465,3.1605,2.2745,3.1605,3.4537c0,1.1796-2.8346,0.9689-3.7705,0.2248l-0.3395,1.9517c0,0,1.0199,0.4914,2.5792,0.4914
				c1.5587,0,3.9116-0.8001,3.9116-2.9766c0-2.2605-3.1888-2.4716-3.1888-3.4542C88.3479,38.5861,90.5732,38.7123,91.5507,39.2461z"
				/>
		</g>
		<path fill="#FAA634" d="M76.9952,41.8484l-0.7687-3.9101c0,0-0.0925-0.7829-1.0837-0.7829h-3.6008L71.5,37.3027
			c0,0,1.7311,0.3554,3.3911,1.6866C76.4785,40.2621,76.9952,41.8484,76.9952,41.8484z"/>
	</g>
</g>
<g>
	<path fill="#0078A9" d="M159,54.5071C159,55.3317,158.3222,56,157.4867,56h-41.9742C114.6771,56,114,55.3317,114,54.5071V29.4929
		C114,28.6683,114.6771,28,115.5126,28h41.9742C158.3222,28,159,28.6683,159,29.4929V54.5071z"/>
	<g>
		<path fill="#FFFFFF" d="M128.4083,40.8538v-0.4437l-0.2154,0.4437h-1.8658l-0.2343-0.4762v0.4762h-3.4873l-0.4119-0.9607h-0.6989
			l-0.4365,0.9607H119.25v-2.8999L120.5755,35h2.538l0.3565,0.837v-0.8307h3.1035l0.6827,1.4092L127.9242,35h9.7983
			c0,0,0.5136-0.0069,0.8519,0.2274L138.5722,35h2.4685v0.32c0,0,0.4442-0.32,1.1002-0.32s4.356,0,4.356,0l0.3824,0.8494V35h2.7913
			l0.5066,0.8494V35h2.6685v5.8593h-2.7415l-0.6441-1.0215v1.0159h-3.4074l-0.4793-1.0463h-0.668l-0.4491,1.0463h-2.0622
			c0,0-0.769-0.0097-1.3458-0.4161c0,0.2129,0,0.4161,0,0.4161h-4.1055c0,0,0-1.168,0-1.367c0-0.1983-0.1544-0.1845-0.1544-0.1845
			h-0.1502v1.5516H128.4083z"/>
		<path fill="#FFFFFF" d="M126.3594,42.1227h5.3945l0.7789,0.8681l0.7964-0.8681h4.1476c0,0,0.3895,0.0097,0.7592,0.2039v-0.2039
			c0,0,3.2256,0,3.6936,0c0.4687,0,0.8624,0.2309,0.8624,0.2309v-0.2309h4.7476v0.2129c0,0,0.3382-0.2129,0.7929-0.2129
			c0.454,0,3.093,0,3.093,0v0.2129c0,0,0.3894-0.2129,0.8013-0.2129c0.4126,0,2.5232,0,2.5232,0v5.5214
			c0,0-0.3193,0.3559-0.9796,0.3559h-3.2964v-0.1755c0,0-0.3045,0.1755-0.769,0.1755c-0.4638,0-8.5051,0-8.5051,0s0-1.2855,0-1.4272
			c0-0.1403-0.0618-0.1659-0.1888-0.1659h-0.1172V48h-2.6579v-1.5834c0,0-0.2947,0.1562-0.7873,0.1562c-0.4919,0-0.9557,0-0.9557,0
			V48h-3.2761l-0.7452-0.8957L131.6747,48h-5.3152V42.1227z"/>
		<polygon fill="#0078A9" points="143.3618,43.0039 146.7474,43.0039 146.7474,43.8982 144.3982,43.8982 144.3982,44.6778 
			146.6815,44.6778 146.6815,45.4657 144.3982,45.4657 144.3982,46.286 146.7474,46.286 146.7474,47.1582 143.3618,47.1582 		"/>
		<path fill="#0078A9" d="M149.3885,44.6225c1.2729,0.0643,1.3795,0.6904,1.3795,1.3581c0,0.7782-0.6491,1.1963-1.3276,1.1963
			h-2.1745V46.286h1.6946c0.287,0,0.7157,0,0.7157-0.3988c0-0.1894-0.0758-0.3103-0.3817-0.3421
			c-0.1361-0.0194-0.6399-0.047-0.715-0.0484c-1.1508-0.0297-1.4167-0.593-1.4167-1.2786c0-0.7789,0.555-1.2046,1.2329-1.2046
			h2.1745v0.8902h-1.5907c-0.3628,0.0035-0.7536-0.0421-0.7536,0.3608c0,0.255,0.1937,0.3062,0.4386,0.3296
			C148.7486,44.5942,149.3135,44.6232,149.3885,44.6225z"/>
		<path fill="#0078A9" d="M137.1106,43.0129h-3.634l-1.1865,1.2889l-1.1479-1.2979h-4.0817v4.1543h3.9491l1.2434-1.3726
			l1.2139,1.3822h1.9871v-1.4106h1.3929c0.5368,0,1.5163-0.018,1.5163-1.4742C138.3631,43.2444,137.6193,43.0129,137.1106,43.0129z
			 M130.4691,46.286h-2.3878v-0.8204h2.284v-0.7879h-2.284v-0.7796l2.5183,0.0055l1.0083,1.1307L130.4691,46.286z M134.4273,46.7684
			l-1.4875-1.734l1.4875-1.6227V46.7684z M136.7618,44.9017h-1.2897v-0.9973h1.2939c0.4336,0,0.5705,0.2737,0.5705,0.4776
			C137.3365,44.6605,137.1856,44.9017,136.7618,44.9017z"/>
		<path fill="#0078A9" d="M142.1128,45.2756c0.5656-0.2778,0.7157-0.649,0.7157-1.15c0-0.8895-0.734-1.112-1.2427-1.112h-2.6924
			v4.1543h1.0357V45.702h1.3556c0.3579,0,0.4989,0.3525,0.508,0.7049l0.0273,0.7609h1.0083l-0.0379-0.8535
			C142.7907,45.6461,142.6033,45.3309,142.1128,45.2756z M141.2189,44.8457h-1.2897v-0.9413h1.2939
			c0.4329,0,0.5698,0.2737,0.5698,0.4776C141.7929,44.6598,141.6427,44.8457,141.2189,44.8457z"/>
		<rect x="139.3082" y="35.8321" fill="#0078A9" width="1.0357" height="4.1592"/>
		<polygon fill="#0078A9" points="130.8312,35.837 134.2154,35.837 134.2154,36.7313 131.8669,36.7313 131.8669,37.5109 
			134.1495,37.5109 134.1495,38.2988 131.8669,38.2988 131.8669,39.1191 134.2154,39.1191 134.2154,39.9913 130.8312,39.9913 		"/>
		<path fill="#0078A9" d="M138.0501,38.099c0.5656-0.2771,0.7157-0.6489,0.7157-1.15c0-0.8902-0.7346-1.112-1.2427-1.112h-2.693
			v4.1543h1.0357v-1.4652h1.3556c0.3579,0,0.4996,0.3518,0.5088,0.7042l0.028,0.7609h1.0076l-0.0372-0.8535
			C138.7287,38.4702,138.5399,38.155,138.0501,38.099z M137.1555,37.6691h-1.2897v-0.9413h1.2946
			c0.4323,0,0.5698,0.2737,0.5698,0.4776C137.7302,37.4839,137.5793,37.6691,137.1555,37.6691z"/>
		<path fill="#0078A9" d="M128.4427,35.837l-1.2707,2.7866l-1.2665-2.7866h-1.6237v4.0009l-1.8075-4.0009h-1.3704l-1.8454,4.1543
			h1.0925l0.4042-0.9275h2.0671l0.4098,0.9275h2.0847v-3.0838l1.3844,3.0838h0.9417l1.4167-3.0326v3.0326h1.0357V35.837H128.4427z
			 M121.1466,38.1674l0.6175-1.452l0.6434,1.452H121.1466z"/>
		<path fill="#0078A9" d="M151.0298,35.8349v2.8764l-1.7465-2.8764h-1.5304v3.9014l-1.764-3.8993h-1.3704l-1.4265,3.2178
			c0,0-0.6027,0-0.6638-0.0145c-0.2491-0.0505-0.6392-0.2239-0.6441-0.9565v-0.3013c0-0.9738,0.5368-1.045,1.2251-1.045h0.6392
			v-0.9026h-1.3521c-0.4708,0-1.4953,0.3539-1.5297,2.0602c-0.0238,1.15,0.4849,2.0982,1.6335,2.0982h1.3655l0.4042-0.9275h2.0664
			l0.4098,0.9275h2.0433v-3.0423l1.8637,3.0423h1.4125v-4.1585H151.0298z M144.6691,38.1695l0.6168-1.4521l0.6498,1.4521H144.6691z"
			/>
		<path fill="#0078A9" d="M153.2688,44.6225c1.2729,0.0643,1.3795,0.6904,1.3795,1.3581c0,0.7782-0.6491,1.1963-1.3276,1.1963
			h-2.1745V46.286h1.6946c0.287,0,0.7157,0,0.7157-0.3988c0-0.1894-0.0758-0.3103-0.3817-0.3421
			c-0.1361-0.0194-0.6399-0.047-0.715-0.0484c-1.1508-0.0297-1.4167-0.593-1.4167-1.2786c0-0.7789,0.555-1.2046,1.2329-1.2046
			h2.1745v0.8902h-1.5907c-0.3628,0.0035-0.7536-0.0421-0.7536,0.3608c0,0.255,0.1937,0.3062,0.4385,0.3296
			C152.6289,44.5942,153.1938,44.6232,153.2688,44.6225z"/>
	</g>
</g>
<g>
	<g>
		<path fill="#F9F9FA" d="M211,54.5064C211,55.331,210.328,56,209.4997,56h-42.0002C166.6713,56,166,55.331,166,54.5064V29.4936
			C166,28.6683,166.6713,28,167.4996,28h42.0002C210.328,28,211,28.6683,211,29.4936V54.5064z"/>
	</g>
	<path fill="#F58220" d="M177.6222,55.907h31.3602c0.8344,0,1.5114-0.6929,1.5114-1.5469V43.5016
		C207.4838,45.4545,196.1358,52.1876,177.6222,55.907z"/>
	<g>
		
			<radialGradient id="SVGID_1_" cx="199.7281" cy="-446.4189" r="2.4795" gradientTransform="matrix(0.9146 0 0 1.0131 5.6029 492.7585)" gradientUnits="userSpaceOnUse">
			<stop  offset="0.0056" style="stop-color:#FFEEE1"/>
			<stop  offset="0.0966" style="stop-color:#FFEAD8"/>
			<stop  offset="0.2452" style="stop-color:#FEDDC2"/>
			<stop  offset="0.4329" style="stop-color:#FCCA9F"/>
			<stop  offset="0.6522" style="stop-color:#F9AF72"/>
			<stop  offset="0.8954" style="stop-color:#F68F39"/>
			<stop  offset="1" style="stop-color:#F48220"/>
		</radialGradient>
		<path fill="url(#SVGID_1_)" d="M188.2725,38.0182c-1.2684,0-2.2967,1.097-2.2967,2.4512c0,1.4399,0.9832,2.5155,2.2967,2.5155
			c1.2791,0,2.2896-1.0898,2.2896-2.4877C190.562,39.1089,189.5581,38.0182,188.2725,38.0182z"/>
		<path fill="#081A23" d="M175.234,38.1072H174v4.7706h1.2283c0.6514,0,1.1229-0.1715,1.5364-0.5501
			c0.4901-0.4516,0.7811-1.1311,0.7811-1.8328C177.5457,39.0867,176.5963,38.1072,175.234,38.1072z M176.2165,41.6903
			c-0.2659,0.2651-0.6069,0.3794-1.1509,0.3794h-0.2257v-3.1545h0.2257c0.5439,0,0.8721,0.1071,1.1509,0.3858
			c0.2902,0.2866,0.4629,0.7295,0.4629,1.1867C176.6794,40.9465,176.5067,41.4053,176.2165,41.6903z"/>
		<rect x="177.9334" y="38.1072" fill="#081A23" width="0.8384" height="4.7706"/>
		<path fill="#081A23" d="M180.8263,39.9368c-0.5045-0.2064-0.6521-0.3429-0.6521-0.6001c0-0.3001,0.2644-0.5287,0.6263-0.5287
			c0.2515,0,0.4579,0.1143,0.6786,0.385l0.4386-0.635c-0.3619-0.3517-0.7947-0.5303-1.2662-0.5303
			c-0.761,0-1.3429,0.5866-1.3429,1.3661c0,0.6588,0.2709,0.9946,1.0591,1.3089c0.3296,0.1286,0.4973,0.2143,0.5812,0.2723
			c0.1677,0.1222,0.2522,0.2929,0.2522,0.4929c0,0.3874-0.2773,0.6723-0.6528,0.6723c-0.4006,0-0.7231-0.2207-0.9165-0.6358
			l-0.5417,0.5802c0.3862,0.6287,0.8513,0.9081,1.4912,0.9081c0.8714,0,1.4848-0.6446,1.4848-1.5669
			C182.066,40.6679,181.783,40.3242,180.8263,39.9368z"/>
		<path fill="#081A23" d="M182.3305,40.4949c0,1.4034,0.9947,2.4901,2.2738,2.4901c0.3619,0,0.6715-0.0786,1.0527-0.2786v-1.0946
			c-0.3361,0.3723-0.6335,0.5215-1.014,0.5215c-0.8456,0-1.4468-0.6794-1.4468-1.6455c0-0.9144,0.6191-1.6376,1.4081-1.6376
			c0.3999,0,0.7037,0.158,1.0527,0.5366v-1.0946C185.2893,38.0849,184.9847,38,184.6236,38
			C183.3509,38,182.3305,39.1089,182.3305,40.4949z"/>
		<polygon fill="#081A23" points="192.4625,41.3116 191.3137,38.1072 190.3958,38.1072 192.2245,43 192.676,43 194.5363,38.1072 
			193.6262,38.1072 		"/>
		<polygon fill="#081A23" points="194.9182,42.8778 197.3002,42.8778 197.3002,42.0697 195.7567,42.0697 195.7567,40.7814 
			197.2414,40.7814 197.2414,39.9741 195.7567,39.9741 195.7567,38.9152 197.3002,38.9152 197.3002,38.1072 194.9182,38.1072 		"/>
		<path fill="#081A23" d="M200.6252,39.5153c0-0.8938-0.5546-1.4081-1.5235-1.4081h-1.2469v4.7706h0.8406v-1.917h0.1097
			l1.1623,1.917H201l-1.3565-2.0099C200.2769,40.7251,200.6252,40.2456,200.6252,39.5153z M198.9398,40.3027h-0.2444v-1.4455h0.258
			c0.5238,0,0.8076,0.2445,0.8076,0.7081C199.761,40.0448,199.4772,40.3027,198.9398,40.3027z"/>
	</g>
	<g>
		<path fill="#D1D3D4" d="M209.4997,29C209.7756,29,210,29.2214,210,29.4936v25.0129C210,54.7786,209.7756,55,209.4997,55h-42.0001
			C167.2241,55,167,54.7786,167,54.5064V29.4936C167,29.2214,167.2241,29,167.4996,29H209.4997 M209.4997,28h-42.0001
			C166.6713,28,166,28.6683,166,29.4936v25.0129C166,55.331,166.6713,56,167.4996,56h42.0001C210.328,56,211,55.331,211,54.5064
			V29.4936C211,28.6683,210.328,28,209.4997,28L209.4997,28z"/>
	</g>
</g>
<g>
	<g>
		<path fill="#179BD7" d="M88.58,4.9198h-5.0038c-0.3421,0-0.6334,0.248-0.6867,0.5847l-2.0234,12.7844
			c-0.0399,0.2522,0.1558,0.4804,0.412,0.4804h2.5673c0.2395,0,0.4434-0.1736,0.4807-0.4094l0.5738-3.6244
			c0.0533-0.3367,0.3445-0.5848,0.6867-0.5848h1.5833c3.2958,0,5.198-1.5893,5.6951-4.7394c0.2238-1.3776,0.009-2.4601-0.6384-3.218
			C91.515,5.3603,90.2539,4.9198,88.58,4.9198z M89.1573,9.5889c-0.2734,1.7897-1.6452,1.7897-2.9719,1.7897h-0.7549L85.96,8.0372
			c0.0321-0.202,0.2068-0.3508,0.412-0.3508h0.3461c0.9031,0,1.7562,0,2.196,0.5127C89.1772,8.506,89.2568,8.9606,89.1573,9.5889z"
			/>
		<path fill="#253B80" d="M52.8918,4.9198H47.888c-0.3421,0-0.6334,0.248-0.6867,0.5847L45.178,18.2889
			c-0.0399,0.2522,0.1558,0.4804,0.412,0.4804h2.3891c0.3421,0,0.6334-0.248,0.6867-0.5848l0.546-3.449
			c0.0533-0.3367,0.3445-0.5848,0.6867-0.5848h1.5834c3.2958,0,5.198-1.5893,5.6951-4.7394c0.2238-1.3776,0.009-2.4601-0.6384-3.218
			C55.8269,5.3603,54.5657,4.9198,52.8918,4.9198z M53.4692,9.5889c-0.2734,1.7897-1.6452,1.7897-2.9719,1.7897h-0.7549
			l0.5295-3.3414c0.032-0.202,0.2067-0.3508,0.412-0.3508h0.3461c0.9031,0,1.7562,0,2.196,0.5127
			C53.489,8.506,53.5687,8.9606,53.4692,9.5889z"/>
		<path fill="#253B80" d="M67.8473,9.5317h-2.3959c-0.2053,0-0.3801,0.1487-0.4121,0.3509l-0.1054,0.6675l-0.1675-0.2418
			c-0.5189-0.7505-1.6753-1.0012-2.8301-1.0012c-2.6469,0-4.9083,1.9987-5.3484,4.8021c-0.229,1.3985,0.0961,2.735,0.8919,3.6679
			c0.7312,0.8571,1.7746,1.2138,3.0177,1.2138c2.1336,0,3.317-1.3658,3.317-1.3658l-0.107,0.6636
			c-0.0401,0.2523,0.1556,0.4806,0.412,0.4806h2.1577c0.342,0,0.6333-0.2479,0.6866-0.5846l1.2953-8.1727
			C68.2993,9.7597,68.1036,9.5317,67.8473,9.5317z M64.5081,14.1786c-0.2314,1.3641-1.3181,2.2799-2.7043,2.2799
			c-0.695,0-1.2512-0.2228-1.6089-0.6444c-0.3544-0.4181-0.4878-1.0137-0.3754-1.6769c0.2157-1.352,1.32-2.2972,2.6851-2.2972
			c0.6803,0,1.2328,0.2248,1.5974,0.6505C64.469,12.919,64.6133,13.5186,64.5081,14.1786z"/>
		<path fill="#179BD7" d="M103.5354,9.5317h-2.3959c-0.2053,0-0.3801,0.1487-0.412,0.3509l-0.1054,0.6675l-0.1675-0.2418
			c-0.5189-0.7505-1.6753-1.0012-2.8301-1.0012c-2.6469,0-4.9083,1.9987-5.3484,4.8021c-0.229,1.3985,0.0961,2.735,0.8919,3.6679
			c0.7312,0.8571,1.7746,1.2138,3.0177,1.2138c2.1336,0,3.317-1.3658,3.317-1.3658l-0.1069,0.6636
			c-0.0401,0.2523,0.1556,0.4806,0.412,0.4806h2.1577c0.3421,0,0.6333-0.2479,0.6867-0.5846l1.2952-8.1727
			C103.9874,9.7597,103.7917,9.5317,103.5354,9.5317z M100.1963,14.1786c-0.2314,1.3641-1.3182,2.2799-2.7043,2.2799
			c-0.695,0-1.2513-0.2228-1.609-0.6444c-0.3544-0.4181-0.4878-1.0137-0.3754-1.6769c0.2158-1.352,1.32-2.2972,2.6851-2.2972
			c0.6804,0,1.2328,0.2248,1.5974,0.6505C100.1571,12.919,100.3014,13.5186,100.1963,14.1786z"/>
		<path fill="#253B80" d="M80.6084,9.5317h-2.4083c-0.2303,0-0.4457,0.1139-0.5751,0.3038l-3.3221,4.8752l-1.4078-4.6848
			c-0.0881-0.2931-0.3588-0.4942-0.666-0.4942h-2.3673c-0.2859,0-0.487,0.2802-0.3948,0.5498l2.6518,7.7558l-2.4942,3.5067
			C69.4287,21.6193,69.6263,22,69.9648,22h2.4059c0.2281,0,0.4416-0.1114,0.5714-0.2982l8.0091-11.5176
			C81.1429,9.9086,80.9449,9.5317,80.6084,9.5317z"/>
		<path fill="#179BD7" d="M106.3595,5.2708l-2.0537,13.0183c-0.0398,0.2522,0.1559,0.4802,0.412,0.4802h2.0654
			c0.3421,0,0.6333-0.248,0.6867-0.5847l2.0249-12.7844c0.04-0.2523-0.1557-0.4804-0.412-0.4804h-2.3113
			C106.5661,4.9198,106.3913,5.0687,106.3595,5.2708z"/>
	</g>
	<g>
		<path fill="#253B80" d="M27.9792,21.0936l0.6727-4.2498l0.0434-0.2355c0.0325-0.2048,0.1377-0.3921,0.2963-0.5271
			c0.1585-0.1348,0.3606-0.2092,0.5692-0.2092h0.5341c0.8902,0,1.7081-0.0948,2.4312-0.2816
			c0.7714-0.1993,1.4574-0.5096,2.0389-0.9217c0.6167-0.437,1.1346-1.0018,1.5396-1.6786c0.4273-0.7138,0.741-1.5734,0.9327-2.5545
			c0.1693-0.8662,0.201-1.6417,0.0945-2.3052c-0.1127-0.7009-0.3837-1.2991-0.8053-1.7781
			c-0.2556-0.2902-0.5829-0.5417-0.9724-0.7474l-0.0091-0.0048l-0.0003-0.0112c0.1362-0.8649,0.131-1.5861-0.0155-2.207
			c-0.1469-0.6224-0.4448-1.1822-0.9108-1.7116c-0.9661-1.0966-2.7228-1.6528-5.2215-1.6528h-6.8621
			c-0.2296,0-0.4522,0.0818-0.6265,0.2303c-0.1745,0.1486-0.2902,0.3549-0.3261,0.5809l-2.8575,18.0546
			c-0.026,0.1648,0.0214,0.3322,0.1302,0.4587c0.1088,0.1269,0.2673,0.1998,0.4346,0.1998h4.2571l-0.0036,0.0201l-0.2924,1.8473
			c-0.0226,0.1435,0.0188,0.2893,0.1134,0.3996c0.0947,0.1105,0.2327,0.174,0.3784,0.174h3.5708
			c0.2002,0,0.3943-0.0713,0.5466-0.2011c0.1523-0.1298,0.2533-0.3096,0.2846-0.5066L27.9792,21.0936z"/>
		<g>
			<path fill="#253B80" d="M25.5329,5.6121c0.0453-0.286,0.2295-0.5203,0.4776-0.6387c0.1128-0.0538,0.2387-0.0838,0.3708-0.0838
				h5.3791c0.6373,0,1.2313,0.0416,1.7746,0.1288c0.1552,0.0249,0.3063,0.0535,0.453,0.0859
				c0.1467,0.0325,0.2891,0.0687,0.4271,0.1089c0.0689,0.0201,0.1368,0.0411,0.2035,0.0632c0.2667,0.0883,0.515,0.1923,0.7436,0.313
				c0.2694-1.7114-0.0019-2.8759-0.9308-3.9306C33.4085,0.4975,31.5608,0,29.1967,0h-6.8622c-0.4832,0-0.8945,0.3503-0.9698,0.8258
				l-2.8574,18.0548c-0.0564,0.3562,0.22,0.6784,0.5819,0.6784h4.2364l1.0642-6.7238L25.5329,5.6121z"/>
			<path fill="#179BD7" d="M35.3621,5.5894L35.3621,5.5894L35.3621,5.5894c-0.0205,0.1305-0.0434,0.2634-0.0702,0.4005
				c-0.9047,4.6295-4.0011,6.2303-7.9554,6.2303H25.323c-0.4832,0-0.891,0.3503-0.9663,0.8259v0v0l-1.0311,6.513l-0.2924,1.8476
				C22.9838,21.7182,23.2256,22,23.5422,22h3.5708c0.4226,0,0.7825-0.3064,0.8484-0.7225l0.035-0.1808l0.6727-4.2504l0.0434-0.2348
				c0.0658-0.416,0.4257-0.7225,0.8483-0.7225h0.5341c3.4593,0,6.168-1.4004,6.9595-5.4504
				c0.3308-1.6923,0.1598-3.1049-0.7148-4.098C36.075,6.0404,35.7458,5.792,35.3621,5.5894z"/>
			<path fill="#222D65" d="M34.415,5.2132c-0.1379-0.0402-0.2803-0.0764-0.4271-0.1089c-0.1468-0.0324-0.2978-0.061-0.453-0.0859
				c-0.5433-0.0872-1.1374-0.1288-1.7746-0.1288h-5.3791c-0.1321,0-0.258,0.03-0.3708,0.0838
				c-0.2481,0.1184-0.4323,0.3527-0.4776,0.6387l-1.1431,7.223l-0.0331,0.2108c0.0753-0.4755,0.4832-0.8258,0.9663-0.8258h2.0134
				c3.9544,0,7.0507-1.6008,7.9554-6.2303c0.0268-0.137,0.0496-0.2699,0.0702-0.4004c-0.2285-0.1206-0.4769-0.2247-0.7436-0.313
				C34.5518,5.2544,34.484,5.2333,34.415,5.2132z"/>
		</g>
	</g>
</g>
<path fill="none" stroke="#BCBEC0" stroke-miterlimit="10" d="M115.9773,14.5H217.518c2.1901,0,3.982,1.8,3.982,4v45
	c0,2.2-1.7919,4-3.982,4H4.482c-2.1901,0-3.982-1.8-3.982-4v-45c0-2.2,1.7919-4,3.982-4h8.9596"/>
</svg>
